<svg height="960" viewBox="0 0 960 960" width="960" xmlns="http://www.w3.org/2000/svg"><path fill-rule="evenodd" d="M480 150c94 0 170 76 170 170v320c0 94-76 170-170 170s-170-76-170-170V320c0-94 76-170 170-170zm0 90c-14 0-25 11-25 25v90c0 14 11 25 25 25s25-11 25-25v-90c0-14-11-25-25-25zm0 330c-42 0-76 34-76 76s34 76 76 76 76-34 76-76-34-76-76-76zm0 46c17 0 30 13 30 30s-13 30-30 30-30-13-30-30 13-30 30-30zM245 250c25 0 45 20 45 45v170c0 25-20 45-45 45s-45-20-45-45V295c0-25 20-45 45-45zm470 0c25 0 45 20 45 45v170c0 25-20 45-45 45s-45-20-45-45V295c0-25 20-45 45-45zM235 570c30 0 55 25 55 55v185c0 30-25 55-55 55s-55-25-55-55V625c0-30 25-55 55-55zm490 0c30 0 55 25 55 55v185c0 30-25 55-55 55s-55-25-55-55V625c0-30 25-55 55-55z"/></svg>
